<?xml version="1.0" encoding="utf-8"?>
<!-- Generator: Adobe Illustrator 23.0.0, SVG Export Plug-In . SVG Version: 6.00 Build 0)  -->
<svg version="1.1" id="Layer_1" xmlns="http://www.w3.org/2000/svg" xmlns:xlink="http://www.w3.org/1999/xlink" x="0px" y="0px"
	 viewBox="0 0 1389 634" style="enable-background:new 0 0 1389 634;" xml:space="preserve">
<style type="text/css">
	.st0{fill:#0067C2;}
	.st1{fill:#B8D6F2;}
	.st2{fill:#FEA75F;}
	.st3{fill:#B8DFF8;}
	.st4{fill:#8FBEE7;}
	.st5{fill:#0065C2;}
	.st6{fill:#00AAF4;}
	.st7{fill:#0080DB;}
	.st8{fill:#ABDCF2;}
	.st9{fill:#FC7E16;}
	.st10{fill:#0569BD;}
	.st11{fill:#529ADA;}
	.st12{fill:#FFA800;}
	.st13{fill:#F37000;}
	.st14{fill:#3885CA;}
	.st15{fill:#E6900C;}
	.st16{fill:#043059;}
	.st17{fill:#4190D7;}
	.st18{fill:#4E4D4D;}
</style>
<g>
	<g>
		<path class="st0" d="M918.5,144.41v167.85h27.84v44.95H918.5v56.88h-50.91v-56.88H748.26v-44.55l118.93-168.25H918.5z
			 M867.59,312.26v-93.47l-66.82,93.47H867.59z"/>
		<path class="st0" d="M1062.89,144.01c15.38,0,28.9,2.46,40.57,7.36c11.67,4.91,21.34,12.86,29.04,23.87
			c7.69,11.01,13.46,25.33,17.3,42.96c3.84,17.64,5.77,39.18,5.77,64.64c0,25.2-1.86,46.54-5.57,64.04
			c-3.72,17.5-9.42,31.76-17.1,42.76c-7.69,11.01-17.37,19.03-29.04,24.06c-11.67,5.03-25.33,7.56-40.97,7.56
			c-13.79,0-26.39-1.86-37.79-5.57c-11.4-3.71-21.15-10.74-29.24-21.08c-8.09-10.34-14.39-24.52-18.89-42.56
			c-4.51-18.03-6.76-41.37-6.76-70.01c0-24.92,1.85-46.14,5.57-63.64c3.71-17.5,9.41-31.75,17.1-42.76
			c7.69-11,17.3-19.02,28.84-24.06C1033.26,146.53,1046.98,144.01,1062.89,144.01z M1062.89,190.15c-6.1,0-11.4,0.86-15.91,2.59
			c-4.51,1.73-8.22,5.71-11.14,11.93c-2.92,6.23-5.17,15.51-6.76,27.84c-1.59,12.33-2.39,29.1-2.39,50.32
			c0,23.07,0.93,40.84,2.78,53.3c1.85,12.47,4.38,21.55,7.56,27.25c3.18,5.71,6.96,9.09,11.34,10.14c4.38,1.06,9.21,1.59,14.52,1.59
			c5.83,0,11-0.86,15.51-2.59c4.51-1.72,8.28-5.7,11.34-11.93c3.05-6.23,5.37-15.44,6.96-27.64c1.59-12.19,2.39-28.9,2.39-50.12
			c0-23.07-0.93-40.9-2.78-53.5c-1.86-12.59-4.44-21.74-7.76-27.45c-3.32-5.7-7.16-9.08-11.54-10.14
			C1072.64,190.69,1067.93,190.15,1062.89,190.15z"/>
		<path class="st0" d="M1361.61,144.41v167.85h27.84v44.95h-27.84v56.88h-50.91v-56.88h-119.33v-44.55l118.93-168.25H1361.61z
			 M1310.7,312.26v-93.47l-66.82,93.47H1310.7z"/>
	</g>
	<g>
		<g>
			<path class="st1" d="M125.68,241.89h-11.16v11.17h-9.77v-11.17H93.58v-9.77h11.16v-11.16h9.77v11.16h11.16V241.89z"/>
		</g>
		<g>
			<path class="st1" d="M317.43,247.15h-11.16v11.17h-9.77v-11.17h-11.16v-9.77h11.16v-11.16h9.77v11.16h11.16V247.15z"/>
		</g>
		<g>
			<path class="st1" d="M517.2,197.11h-11.16v11.17h-9.77v-11.17H485.1v-9.77h11.17v-11.16h9.77v11.16h11.16V197.11z"/>
		</g>
		<g>
			<path class="st1" d="M1363.58,553.24h-11.16v11.17h-9.77v-11.17h-11.17v-9.77h11.17v-11.16h9.77v11.16h11.16V553.24z"/>
		</g>
		<g>
			<path class="st1" d="M855.84,504.67h-11.16v11.17h-9.77v-11.17h-11.17v-9.77h11.17v-11.16h9.77v11.16h11.16V504.67z"/>
		</g>
		<g>
			<path class="st1" d="M125.68,424.48h-11.16v11.17h-9.77v-11.17H93.58v-9.77h11.16v-11.16h9.77v11.16h11.16V424.48z"/>
		</g>
		<g>
			<path class="st1" d="M1373.5,120.31h-11.16v11.17h-9.77v-11.17h-11.17v-9.77h11.17V99.37h9.77v11.16h11.16V120.31z"/>
		</g>
		<g>
			<path class="st1" d="M599.68,403.62c0-2.44-1.6-4.05-5.16-4.05c-3.84,0-6.14,2.58-7.54,5.86l-9.63-5.51
				c3.07-7.19,9.84-11.23,17.58-11.23c7.95,0,15.91,4.88,15.91,13.96c0,10.4-11.16,13.61-11.16,18.42h-11.17
				C588.52,412.9,599.68,409.76,599.68,403.62z M587.47,432.86c0-3.63,3-6.63,6.63-6.63c3.63,0,6.63,3,6.63,6.63
				c0,3.63-3,6.63-6.63,6.63C590.47,439.49,587.47,436.49,587.47,432.86z"/>
		</g>
		<g>
			<path class="st1" d="M174.2,174.74c0-2.44-1.6-4.05-5.16-4.05c-3.84,0-6.14,2.58-7.54,5.86l-9.63-5.51
				c3.07-7.19,9.84-11.23,17.58-11.23c7.95,0,15.91,4.88,15.91,13.96c0,10.4-11.16,13.61-11.16,18.42h-11.16
				C163.04,184.02,174.2,180.88,174.2,174.74z M161.99,203.98c0-3.63,3-6.63,6.63-6.63c3.63,0,6.63,3,6.63,6.63
				c0,3.63-3,6.63-6.63,6.63C164.99,210.61,161.99,207.61,161.99,203.98z"/>
		</g>
		<g>
			<path class="st1" d="M570.12,158.06c0-2.44-1.6-4.05-5.16-4.05c-3.84,0-6.14,2.58-7.54,5.86l-9.63-5.51
				c3.07-7.19,9.84-11.23,17.58-11.23c7.95,0,15.91,4.88,15.91,13.96c0,10.4-11.16,13.61-11.16,18.42h-11.16
				C558.95,167.34,570.12,164.2,570.12,158.06z M557.9,187.3c0-3.63,3-6.63,6.63-6.63c3.63,0,6.63,3,6.63,6.63
				c0,3.63-3,6.63-6.63,6.63C560.9,193.93,557.9,190.93,557.9,187.3z"/>
		</g>
		<g>
			<path class="st1" d="M1220.71,158.9c0-2.44-1.6-4.05-5.16-4.05c-3.84,0-6.14,2.58-7.54,5.86l-9.63-5.51
				c3.07-7.19,9.84-11.23,17.58-11.23c7.95,0,15.91,4.88,15.91,13.96c0,10.4-11.16,13.61-11.16,18.42h-11.16
				C1209.55,168.18,1220.71,165.04,1220.71,158.9z M1208.5,188.14c0-3.63,3-6.63,6.63-6.63c3.63,0,6.63,3,6.63,6.63
				c0,3.63-3,6.63-6.63,6.63C1211.5,194.77,1208.5,191.77,1208.5,188.14z"/>
		</g>
		<g>
			<path class="st1" d="M804.9,140.13c0-2.44-1.6-4.05-5.16-4.05c-3.84,0-6.14,2.58-7.54,5.86l-9.63-5.51
				c3.07-7.19,9.84-11.23,17.58-11.23c7.95,0,15.91,4.88,15.91,13.96c0,10.4-11.16,13.61-11.16,18.42l-11.16,0
				C793.73,149.41,804.9,146.27,804.9,140.13z M792.69,169.37c0-3.63,3-6.63,6.63-6.63c3.63,0,6.63,3,6.63,6.63
				c0,3.63-3,6.63-6.63,6.63C795.69,176,792.69,173,792.69,169.37z"/>
		</g>
		<g>
			<path class="st1" d="M788.15,391.48c0-2.44-1.6-4.05-5.16-4.05c-3.84,0-6.14,2.58-7.54,5.86l-9.63-5.51
				c3.07-7.19,9.84-11.23,17.58-11.23c7.95,0,15.91,4.88,15.91,13.96c0,10.4-11.16,13.61-11.16,18.42h-11.16
				C776.99,400.76,788.15,397.62,788.15,391.48z M775.94,420.72c0-3.63,3-6.63,6.63-6.63c3.63,0,6.63,3,6.63,6.63
				c0,3.63-3,6.63-6.63,6.63C778.94,427.35,775.94,424.35,775.94,420.72z"/>
		</g>
		<g>
			<path class="st1" d="M1197.33,447.87c0-2.44-1.6-4.05-5.16-4.05c-3.84,0-6.14,2.58-7.54,5.86l-9.63-5.51
				c3.07-7.19,9.84-11.23,17.58-11.23c7.95,0,15.91,4.88,15.91,13.96c0,10.4-11.16,13.61-11.16,18.42h-11.16
				C1186.17,457.15,1197.33,454.01,1197.33,447.87z M1185.12,477.11c0-3.63,3-6.63,6.63-6.63c3.63,0,6.63,3,6.63,6.63
				c0,3.63-3,6.63-6.63,6.63C1188.12,483.74,1185.12,480.74,1185.12,477.11z"/>
		</g>
		<g>
			<path class="st1" d="M581.31,243.87l-0.98,5.58h7.4l-1.19,7.68h-7.47l-1.74,10.47h-7.95l1.74-10.47h-6.42l-1.74,10.47H555
				l1.75-10.47h-7.4l1.26-7.68h7.4l0.98-5.58h-7.47l1.26-7.68h7.47l1.74-10.47h7.95l-1.74,10.47h6.42l1.74-10.47h7.95l-1.74,10.47
				h7.33l-1.26,7.68H581.31z M573.35,243.87h-6.42l-0.98,5.58h6.42L573.35,243.87z"/>
		</g>
		<g>
			<path class="st1" d="M691.87,255.53l-0.98,5.58h7.4l-1.19,7.68h-7.47l-1.74,10.47h-7.95l1.74-10.47h-6.42l-1.74,10.47h-7.95
				l1.74-10.47h-7.4l1.26-7.68h7.4l0.98-5.58h-7.47l1.26-7.68h7.47l1.74-10.47h7.95l-1.74,10.47h6.42l1.74-10.47h7.95l-1.74,10.47
				h7.33l-1.26,7.68H691.87z M683.91,255.53h-6.42l-0.98,5.58h6.42L683.91,255.53z"/>
		</g>
		<g>
			<path class="st1" d="M378.76,214.9l-0.98,5.58h7.4l-1.19,7.68h-7.47l-1.74,10.47h-7.96l1.74-10.47h-6.42l-1.75,10.47h-7.95
				l1.74-10.47h-7.4l1.26-7.68h7.4l0.98-5.58h-7.47l1.26-7.68h7.47l1.74-10.47h7.95l-1.74,10.47h6.42l1.74-10.47h7.95l-1.74,10.47
				h7.33l-1.26,7.68H378.76z M370.81,214.9h-6.42l-0.98,5.58h6.42L370.81,214.9z"/>
		</g>
		<g>
			<path class="st1" d="M1099.23,71.53l-0.98,5.58h7.4l-1.19,7.68h-7.47l-1.74,10.47h-7.96l1.74-10.47h-6.42l-1.74,10.47h-7.95
				l1.74-10.47h-7.4l1.26-7.68h7.4l0.98-5.58h-7.47l1.26-7.68h7.47l1.74-10.47h7.95l-1.74,10.47h6.42l1.74-10.47h7.95l-1.74,10.47
				h7.33l-1.26,7.68H1099.23z M1091.27,71.53h-6.42l-0.98,5.58h6.42L1091.27,71.53z"/>
		</g>
		<g>
			<path class="st1" d="M989.15,446.34l-0.98,5.58h7.4l-1.19,7.68h-7.47l-1.74,10.47h-7.96l1.75-10.47h-6.42l-1.74,10.47h-7.95
				l1.74-10.47h-7.4l1.26-7.68h7.4l0.98-5.58h-7.47l1.26-7.68h7.47l1.74-10.47h7.95l-1.74,10.47h6.42l1.74-10.47h7.95l-1.74,10.47
				h7.33l-1.26,7.68H989.15z M981.19,446.34h-6.42l-0.98,5.58h6.42L981.19,446.34z"/>
		</g>
		<g>
			<path class="st1" d="M96.73,485.28l-0.98,5.58h7.4l-1.19,7.68H94.5L92.76,509H84.8l1.74-10.47h-6.42L78.38,509h-7.95l1.74-10.47
				h-7.4l1.26-7.68h7.4l0.98-5.58h-7.47l1.26-7.68h7.47l1.74-10.47h7.95l-1.74,10.47h6.42l1.74-10.47h7.95l-1.74,10.47h7.33
				l-1.26,7.68H96.73z M88.78,485.28h-6.42l-0.98,5.58h6.42L88.78,485.28z"/>
		</g>
		<g>
			<path class="st1" d="M681.4,492.53l-0.98,5.58h7.4l-1.19,7.68h-7.47l-1.74,10.47h-7.96l1.74-10.47h-6.42l-1.74,10.47h-7.95
				l1.74-10.47h-7.4l1.26-7.68h7.4l0.98-5.58h-7.47l1.26-7.68h7.47l1.74-10.47h7.95l-1.74,10.47h6.42l1.74-10.47h7.95l-1.74,10.47
				h7.33l-1.26,7.68H681.4z M673.44,492.53h-6.42l-0.98,5.58h6.42L673.44,492.53z"/>
		</g>
	</g>
	<path class="st2" d="M458.76,441.17c-0.8,1.17-3.08,1.02-4.22,0.81c-1.43-0.27-2.68-1.2-3.77-2.05c-3.47-2.69-6.93-5.35-10.11-8.43
		c-1.58-1.53-3.56-2.75-4.82-4.53c-0.28-0.39-0.19-1.91-0.19-2.4c0-0.78,0.89-0.71,1.53-0.67c3.62,0.2,6.81,2.29,9.76,4.2
		c1.13,0.73,2.09,1.65,3.22,2.4c1.73,1.14,3.48,2.29,5.01,3.67c1.19,1.07,2.34,2.52,3.12,3.91c0.39,0.7,0.94,1.66,0.78,2.52
		C458.98,441.15,458.64,441.48,458.76,441.17z"/>
	<path class="st2" d="M436.68,428.42c-0.85-0.63-1.03-1.76-1.25-2.72c-0.74-3.18-0.93-6.49-1.24-9.76c-0.26-2.68,0.11-5.42-0.4-8.13
		c-0.47-2.53-1.66-4.97-1.9-7.57c-0.13-1.43-0.13-3.69,0.64-5.2c0.31-0.61,1.14-0.72,1.6-0.22c0.23,0.25,0.43,0.51,0.55,0.74
		c0.31,0.58,0.31,1.58,0.51,2.26c0.39,1.3,1,2.65,1.27,3.95c0.21-0.57,0.14-1.64,0.09-2.57c-0.02-0.29,0.39-0.36,0.48-0.09
		c0.41,1.24,0.76,2.78,0.88,3.77c0.16,1.28-0.54,2.97-0.42,4.26c0.21,2.29,1.14,3.95,1.72,6.19c0.95,3.68,2.67,7.63,2.27,11.51
		c-0.1,0.97,0.14,2.62-0.68,3.34C440.21,428.7,437.54,429.06,436.68,428.42z"/>
	<path class="st3" d="M462.99,435.51c-0.77-0.66-2.1-0.63-3.11-0.97c-1.34-0.44-2.74-1.02-3.93-1.76c-0.64-0.4-1.25-0.83-1.92-1.16
		c-0.67-0.33-1.41-0.52-2.04-0.95c-0.55-0.38-0.94-0.96-1.56-0.52c-0.56,0.4-1,0.99-1.54,1.44c-0.96,0.81-1.9,1.71-2.44,2.86
		c-0.38,0.82-0.46,1.68-0.76,2.51c0.73,0.44,1.3,1.1,2.04,1.54c0.97,0.58,1.92,1.11,2.77,1.88c0.67,0.6,1.22,1.33,1.74,2.04
		c0.89,1.21,0.71,2.25,0.63,3.69c-0.14,2.34-0.8,4.68-0.8,7.02c0.4-0.26,0.74-0.68,1.15-0.96c0.64-0.44,1.44-0.65,2.01-1.19
		c1.16-1.1,1.24-3.05,1.58-4.51c0.58-2.5,1.42-4.93,3.21-6.84c0.8-0.85,1.39-1.61,1.97-2.63c0.3-0.52,0.63-1.15,0.98-1.59
		C462.88,435.64,462.77,435.86,462.99,435.51z"/>
	<g>
		<path class="st2" d="M177.26,392.28c0.04-0.32,0.08-0.63,0.13-0.94c0.42-2.54,0.71-5.12,1.65-7.54c0.43-1.08,0.98-2.12,1.31-3.24
			c0.34-1.12,0.44-2.35-0.03-3.42c-0.75,1.01-1.24,2.22-1.4,3.48c-0.03-2.74,0.14-5.48,0.49-8.19c-0.2-0.14-0.48-0.04-0.7,0.07
			c-1.09,0.54-2.09,1.28-2.9,2.18c-0.39,0.43-0.75,0.91-0.95,1.47c-0.21,0.59-0.23,1.24-0.19,1.87c0.1,1.76,0.87,3.76,0.29,5.42
			c-0.27,0.79-0.23,1.27-0.92,2.6c-1.03,2-2.04,4.01-3.06,6.02c-1.14,2.26-3.81,7.6-2.62,10.28c0.67,1.48,1.63,2.2,3.25,1.98
			c1.62-0.23,2.45-1.65,3.18-3.12C175.86,398.99,176.97,394.66,177.26,392.28z"/>
		<path class="st2" d="M169.96,430.19c0.42-0.73,0.63-1.55,0.83-2.37c1.97-7.95,3.5-16.11,3.01-24.39
			c-0.05-0.89-0.13-1.81-0.54-2.64c-0.4-0.83-1.2-1.58-2.16-1.73c-0.96-0.15-1.89,0.32-2.48,0.99c-0.59,0.67-0.89,1.51-1.17,2.35
			c-2.4,7.14-3.88,14.62-3.96,22.23c-0.02,1.78,0.07,3.68,1.15,5.23c0.6,0.86,1.75,1.84,2.89,1.94
			C168.63,431.89,169.49,431,169.96,430.19z"/>
		<path class="st4" d="M171.54,429.1c0.51-0.93,0.82-1.94,1.12-2.95c0.24-0.8,0.48-1.6,0.72-2.4c0.22-0.72,0.44-1.45,0.59-2.19
			c0.15-0.73,0.24-1.47,0.33-2.21c0.15-1.26,0.3-2.53,0.46-3.79c-4.3-1.63-9.14-1.78-13.54-0.43c-0.13,2.01-0.11,4.03,0.05,6.04
			c0.16,1.97,0.46,3.95,1.28,5.74c0.81,1.76,2.38,3.52,4.08,4.48C168.51,432.45,170.67,430.68,171.54,429.1z"/>
	</g>
	<g>
		<path class="st1" d="M157.05,534.27c-0.61,0.19-61.78,19.1-132.19,20.69c-0.63,0.01-1.28,0.02-1.97,0.02
			c-5.79,0-13.71-0.49-22.99-1.27v-6.87c10.39,0.89,19.05,1.41,24.8,1.28c69.42-1.56,129.71-20.19,130.31-20.38L157.05,534.27z"/>
	</g>
	<g>
		<path class="st5" d="M88.72,321.28v13.68c-33.67,0-61.73-11.19-88.82-22.14v-14.76c1.41,0.57,2.8,1.13,4.2,1.7
			C31.47,310.83,57.32,321.28,88.72,321.28z"/>
	</g>
	<path class="st6" d="M212.36,330.47l4.24-78.33c0,0-22.29,0-35.83,0c-21.44,0-31.12,38.93-52.47,50.31
		c-17.75,9.46-33.29,9.66-42.31,9.66c-9.03,0-9.69,16.57-9.69,16.57s0.66,16.57,9.69,16.57c9.03,0,24.56,0.2,42.31,9.66
		c21.35,11.38,31.03,50.31,52.47,50.31c13.54,0,35.83,0,35.83,0l-4.55-74.76L212.36,330.47z"/>
	<path class="st7" d="M258.35,328.69c0-26.82-3.81-50.95-9.87-67.76v-24.2h-20.59c-16.83,0-30.47,41.17-30.47,91.96
		c0,50.79,13.64,91.96,30.47,91.96h20.59v-24.2C254.55,379.64,258.35,355.51,258.35,328.69z"/>
	<ellipse class="st8" cx="247.07" cy="328.69" rx="30.47" ry="91.96"/>
	<g>
		<path class="st5" d="M251.02,294.55c0,6.58-1.77,11.92-3.95,11.92c-2.18,0-3.95-5.34-3.95-11.92c0-6.58,1.77-11.92,3.95-11.92
			C249.25,282.63,251.02,287.97,251.02,294.55z"/>
		<rect x="247.07" y="282.63" class="st5" width="65.17" height="23.84"/>
		<circle class="st5" cx="314.21" cy="294.55" r="11.92"/>
	</g>
	<g>
		<path class="st5" d="M251.02,362.82c0,6.58-1.77,11.92-3.95,11.92c-2.18,0-3.95-5.34-3.95-11.92s1.77-11.92,3.95-11.92
			C249.25,350.9,251.02,356.24,251.02,362.82z"/>
		<rect x="247.07" y="350.9" class="st5" width="65.17" height="23.84"/>
		<circle class="st5" cx="314.21" cy="362.82" r="11.92"/>
	</g>
	<g>
		<path class="st1" d="M658.29,547.47v6.84c-6.14,0.42-12.1,0.65-17.79,0.65h-0.31c-12.85-0.02-33.98-2.81-56.34-5.76
			c-29.51-3.9-60.01-7.93-75.47-6.27l-0.73-6.8c16.27-1.75,47.19,2.34,77.09,6.29c22.14,2.92,43.05,5.68,55.46,5.7h0.31
			C646.19,548.12,652.15,547.89,658.29,547.47z"/>
	</g>
	<g>
		<path class="st5" d="M658.29,340.49v14.31c-2.56-0.79-5.11-1.58-7.66-2.37c-27.76-8.59-56.47-17.47-84.88-17.47v-13.68
			c30.48,0,60.19,9.2,88.92,18.09C655.88,339.74,657.09,340.12,658.29,340.49z"/>
	</g>
	<path class="st6" d="M568.48,312.12c-9.03,0-24.56-0.2-42.32-9.66c-21.35-11.38-31.03-50.31-52.47-50.31c-13.54,0-35.83,0-35.83,0
		l4.82,74.56l-0.56-0.01l-4.26,78.53c0,0,22.29,0,35.83,0c21.44,0,31.13-38.93,52.47-50.31c17.75-9.46,33.29-9.66,42.32-9.66
		c9.03,0,9.69-16.57,9.69-16.57S577.51,312.12,568.48,312.12z"/>
	<path class="st7" d="M396.12,328.69c0-26.82,3.81-50.95,9.87-67.76v-24.2h20.59c16.83,0,30.47,41.17,30.47,91.96
		c0,50.79-13.64,91.96-30.47,91.96h-20.59v-24.2C399.92,379.64,396.12,355.51,396.12,328.69z"/>
	<ellipse class="st6" cx="407.4" cy="328.69" rx="30.47" ry="91.96"/>
	<g>
		<path class="st5" d="M403.45,294.55c0,6.58,1.77,11.92,3.95,11.92c2.18,0,3.95-5.34,3.95-11.92c0-6.58-1.77-11.92-3.95-11.92
			C405.22,282.63,403.45,287.97,403.45,294.55z"/>
	</g>
	<g>
		<path class="st5" d="M403.45,362.82c0,6.58,1.77,11.92,3.95,11.92c2.18,0,3.95-5.34,3.95-11.92s-1.77-11.92-3.95-11.92
			C405.22,350.9,403.45,356.24,403.45,362.82z"/>
	</g>
	<g>
		<path class="st1" d="M240.69,531.46c0,3.51-23.51,6.35-52.51,6.35c-29,0-52.51-2.84-52.51-6.35c0-3.51,23.51-6.35,52.51-6.35
			C217.18,525.1,240.69,527.95,240.69,531.46z"/>
		<path class="st2" d="M215.51,400.13c0.24-0.21,0.48-0.42,0.71-0.64c1.87-1.77,3.86-3.44,5.34-5.58c0.66-0.96,1.22-1.99,1.96-2.89
			c0.74-0.9,1.71-1.68,2.85-1.88c-0.42,1.19-1.15,2.27-2.1,3.1c2.29-1.5,4.47-3.17,6.53-4.97c0.23,0.09,0.3,0.38,0.33,0.62
			c0.16,1.21,0.1,2.45-0.19,3.63c-0.14,0.57-0.34,1.14-0.69,1.61c-0.37,0.51-0.9,0.88-1.44,1.2c-1.51,0.9-3.6,1.37-4.66,2.78
			c-0.5,0.67-0.92,0.9-1.65,2.21c-1.09,1.97-2.19,3.93-3.29,5.9c-1.24,2.21-4.18,7.4-7.07,7.9c-1.6,0.28-2.74-0.13-3.45-1.59
			c-0.72-1.47,0-2.96,0.82-4.38C210.72,405.03,213.7,401.7,215.51,400.13z"/>
		<path class="st2" d="M213.44,412.18c-0.04,0.12-0.09,0.24-0.15,0.35c-0.4,0.79-1.07,1.4-1.73,1.97
			c-3.92,3.38-8.16,6.42-12.71,8.94c-2.07,1.15-4.19,2.19-6.39,3.11c-1.65,0.69-3.44,1.32-5.28,0.91c-1.03-0.23-2.36-0.92-2.89-1.95
			c-0.5-0.97,0-2.1,0.57-2.84c0.52-0.66,1.2-1.17,1.88-1.66c6.62-4.82,13.6-9.31,21.45-11.99c0.85-0.29,1.73-0.56,2.65-0.5
			c0.93,0.06,1.92,0.51,2.42,1.35C213.7,410.58,213.7,411.45,213.44,412.18z"/>
		<path class="st2" d="M185.31,412.37c-0.41,0.93-1.04,1.9-2.03,2.1c-0.32,0.06-1.18,0-2.09-0.13c-0.22-0.03-0.44-0.06-0.66-0.1
			c-0.92-0.16-1.77-0.36-2.04-0.56c-0.6-0.42-1.68-2.2-1.78-2.44c-0.03-0.06-0.06-0.14-0.1-0.22c-0.08-0.16-0.18-0.34-0.28-0.53
			c-0.33-0.58-0.73-1.27-0.73-1.7c0-3.11,1.31-3.93,2.47-5.45c1.16-1.52,2.83-2.59,4.63-3.22c0.97-0.34,2.15-0.61,3.17-0.31
			c0.91,0.26,0.79,0.93,0.84,1.74C186.92,405.27,186.83,408.93,185.31,412.37z"/>
		<path class="st2" d="M182.55,419.41c-2.25,2.43-5.85,3.52-9.08,2.75c-0.92-0.22-1.82-0.58-2.76-0.62
			c1.31-0.84,1.97-2.41,2.27-3.93c0.34-1.71,0.29-3.49-0.17-5.17c-0.09-0.34-0.86-1.78-0.5-2.04c0.3-0.22,1.99,0.51,2.47,0.5
			c0.54-0.01,1.04-0.17,1.54-0.38c0.08-0.04,0.16-0.07,0.25-0.11l0,0c0.56-0.25,1.1-0.54,1.67-0.72c0.12-0.04,0.25-0.07,0.37-0.04
			c0.1,0.03,0.19,0.1,0.27,0.17c0.74,0.67,1.49,1.34,2.23,2.01c-0.25,0.73-0.44,1.49-0.56,2.25c-0.01,0.06-0.02,0.12-0.03,0.18
			c-0.11,0.72-0.16,1.46-0.16,2.19c0,0.21,0.01,0.42,0.03,0.63c0.02,0.27,0.08,0.53,0.17,0.79
			C180.86,418.68,181.66,419.31,182.55,419.41z"/>
		<path class="st9" d="M180.52,414.24c-0.11,0.72-0.16,1.46-0.16,2.19c0,0.21,0.01,0.42,0.03,0.63c-0.22-0.12-0.41-0.36-0.56-0.5
			c-0.34-0.3-0.64-0.6-0.94-0.93c-0.93-1.01-1.47-2.28-1.94-3.54c-0.12-0.33-0.26-0.7-0.34-1.06c-0.04-0.21-0.06-0.43-0.04-0.64
			c0,0,0,0,0,0l0,0c0.82,0.87,1.47,1.85,2.39,2.63c0.47,0.4,1.03,0.75,1.59,1.04c0.06,0.03,0.11,0.06,0.17,0.09
			c0.15,0.08,0.31,0.13,0.47,0.2C180.96,414.31,180.73,414.28,180.52,414.24z"/>
		<path class="st10" d="M178.09,413.33c0.6-0.5,1.18-1.03,1.65-1.66c1.11-1.52,1.43-3.48,2.36-5.12c0.6-1.05,1.46-1.96,2.48-2.62
			c0.85-0.55,1.81-0.93,2.56-1.6c1.15-1.02,1.68-2.61,1.67-4.15c-0.01-1.54-0.49-3.03-1.1-4.44c-0.58,0.65-1.5,0.87-2.36,0.99
			c-2.39,0.32-4.81,0.11-7.21,0.33c-2.4,0.22-4.89,0.98-6.46,2.81c-1.66,1.94-1.94,4.68-1.99,7.23c-0.02,1.29-0.01,2.59,0.25,3.85
			c0.33,1.64,1.07,3.2,2.13,4.5C173.83,415.62,176.18,414.93,178.09,413.33z"/>
		<path class="st2" d="M182.67,406c-0.19-0.31-0.44-0.6-0.77-0.76c-0.33-0.15-0.76-0.14-1.02,0.12c-0.2,0.2-0.27,0.51-0.24,0.79
			c0.03,0.28,0.14,0.55,0.25,0.81c0.38,0.91,0.77,1.84,1.4,2.61c0.11,0.13,0.27,0.27,0.43,0.22c0.1-0.03,0.16-0.12,0.22-0.21
			c0-0.23,0.32-0.64,0.38-0.89c0.09-0.34,0.12-0.7,0.1-1.05c-0.02,0.01,0.03,0.07-0.04,0.06C183.02,407.3,182.99,406.49,182.67,406z
			"/>
		<path class="st11" d="M168.74,529.32c-0.09,0.68-0.18,1.39,0.03,2.04c0.42,1.31,1.97,1.98,3.34,1.86
			c1.37-0.12,2.61-0.84,3.78-1.56c1.92-1.17,3.85-2.37,5.5-3.91c0.62-0.58,1.21-1.22,1.56-1.99c0.34-0.78,0.4-1.72-0.02-2.45
			c-0.65-1.14-2.23-1.43-3.51-1.1c-1.28,0.33-2.38,1.11-3.57,1.67c-1.63,0.76-2.58,1.33-4.25,1.97
			C169.6,526.62,169,527.32,168.74,529.32z"/>
		<path class="st12" d="M166.54,465.78c-0.35,4.26,0.41,8.51,1.03,12.74c0.65,4.44,1.16,8.9,1.51,13.37
			c0.11,1.38,0.2,2.76,0.06,4.14c-0.23,2.22-1.07,4.33-1.52,6.52c-0.76,3.71-0.39,7.56-0.01,11.33c0.25,2.5,0.5,5,0.75,7.5
			c0.24,2.37,0.48,4.76,1.2,7.03c2.12,0.77,3.3-0.08,4.05-0.81c0.39-6.56,1.45-13.08,3.16-19.43c0.53-1.99,1.13-3.96,1.48-5.99
			c0.39-2.29,0.45-4.62,0.61-6.94c0.59-8.86,2.56-17.69,1.77-26.53c-0.31-3.42-1.02-6.79-1.74-10.14c-0.06-0.3-0.14-0.63-0.36-0.85
			c-0.25-0.25-0.62-0.31-0.96-0.37c-1.82-0.28-3.63-0.55-5.45-0.83c-1.1-0.17-2.55-0.7-3.43,0.23c-0.86,0.91-1.03,2.96-1.31,4.14
			C166.97,462.51,166.67,464.14,166.54,465.78z"/>
		<path class="st11" d="M186.8,532.93c-0.12,0.71-0.24,1.46-0.05,2.15c0.4,1.43,2.03,2.23,3.51,2.17c1.48-0.06,2.85-0.77,4.16-1.47
			c2.05-1.09,4.1-2.17,6.04-3.43c1.13-0.73,2.28-1.58,2.85-2.8c0.57-1.22,0.34-2.92-0.83-3.59c-1.27-0.73-2.83,0.02-4.2,0.54
			c-1.47,0.56-3.03,0.86-4.58,1.15c-1.57,0.3-4.26,0.27-5.63,1.06C186.89,529.41,187.02,531.62,186.8,532.93z"/>
		<path class="st12" d="M177.12,473.67c0.9,1.34,1.97,2.56,2.82,3.93c1.16,1.88,1.85,3.99,2.52,6.09
			c1.86,5.74,3.74,11.58,3.84,17.61c0.07,4.22-0.74,8.41-0.85,12.63c-0.07,2.81,0.17,5.61,0.41,8.41c0.25,2.87,0.49,5.74,0.74,8.61
			c2.34,0.22,4.74-0.28,6.79-1.42c-0.39-7.1,0.36-14.23,1.58-21.24c0.59-3.39,1.29-6.76,1.6-10.18c0.56-6.28-0.22-12.6-0.99-18.85
			c-0.96-7.77-1.95-15.61-4.66-22.95c0.18,0.5-13.04,1.77-14.18,1.89c-4.22,0.42-3.07,5.51-2.44,8.56
			C174.81,469.21,175.73,471.58,177.12,473.67z"/>
		<path class="st13" d="M174.1,491.6c0.42,1.42,0.9,2.84,1.1,4.31c0.23,1.69,0.09,3.42-0.06,5.12c-0.17,1.93-0.34,3.87-0.5,5.8
			c-0.43,5-0.81,10.02-1.62,14.98c-0.33,1.99,0.36,3.59,0.57,5.82c1.95-6.31,2.84-12.23,4.04-18.72c1.36-7.31,1.75-14.76,2.15-22.19
			c0.11-2.14,0.23-4.29,0.34-6.43c0.06-1.09,0.1-2.24-0.44-3.19c-0.54-0.94-1.54-1.5-2.46-2.07c-2.38-1.49-3.9-3.63-5.98-5.36
			c-0.74,0.99-0.06,3.57,0.04,4.75c0.16,1.94,0.34,3.87,0.58,5.8C172.32,484.06,173,487.88,174.1,491.6z"/>
		<path class="st4" d="M191.66,443.29c0.14-1.32,0.35-2.64,0.34-3.97c-0.01-2.4-0.72-4.74-1.41-7.04c-0.94-3.09-1.87-6.18-2.81-9.27
			c-0.34-1.13-0.69-2.27-1.26-3.31c-1.51,0.25-3.07,0.15-4.53-0.29l0.21,0.15c-2.02,1.71-4.7,2.6-7.34,2.47c0-0.01,0-0.01,0-0.01
			c-0.29-0.14-0.78-0.1-1.14-0.26c-0.31-0.14-0.66-0.33-0.95-0.51c-0.45-0.29-0.99-0.92-0.75-1.49c-0.85,0.62-1.45,0.82-2.49,0.87
			c-0.74,0.03-1.64,0.1-2.22,0.6c-1,0.86-1.55,2.18-1.77,3.49c-0.02,0.06-0.04,0.12-0.06,0.18c-0.33,1.12-0.23,2.32-0.12,3.49
			c0.23,2.44,0.52,4.88,1.12,7.26c0.37,1.49,0.87,2.95,1.14,4.46c1.11,6.09-1.39,12.42-0.22,18.49c0.74-0.05,1.35,0.52,1.93,0.98
			c1.97,1.56,4.58,2.11,7.1,2.17c2.52,0.06,5.03-0.32,7.54-0.38c2.87-0.07,6.07,0.16,8.23-1.73
			C191.53,454.22,191.07,448.72,191.66,443.29z"/>
		<path class="st14" d="M186.15,421.8c-0.79-0.47-1.87-0.02-2.38,0.74c-0.51,0.76-0.6,1.72-0.62,2.64
			c-0.11,5.5,1.52,10.89,1.97,16.38c0.1,1.16,0.14,2.34-0.15,3.47c-0.28,1.09-0.86,2.08-1.22,3.15c-0.71,2.1-0.54,4.39-0.14,6.56
			c0.39,2.18,1.01,4.32,1.16,6.53c2.72-0.15,5.42-0.71,7.98-1.65c0.16-0.06,0.33-0.13,0.41-0.28c0.09-0.15,0.05-0.34,0.02-0.51
			c-1.04-5.17-0.98-10.5-0.63-15.77c0.09-1.34,0.19-2.68,0.09-4.01c-0.09-1.23-0.36-2.44-0.63-3.64c-0.66-2.91-1.39-5.94-3.35-8.19
			c-0.72-0.82-1.59-1.51-2.2-2.42c-0.61-0.91-0.92-2.13-0.38-3.09c0.25,0.37,0.49,0.75,0.74,1.12"/>
		<path class="st4" d="M182.83,422.36c0.61-0.86,1.39-1.59,2.16-2.31c0.61-0.57,1.22-1.14,1.83-1.7c0.55-0.51,1.11-1.03,1.7-1.49
			c0.59-0.46,1.21-0.86,1.84-1.27c1.07-0.69,2.14-1.39,3.2-2.08c3.36,3.14,5.63,7.43,6.34,11.97c-1.75,1-3.57,1.87-5.44,2.61
			c-1.83,0.73-3.75,1.33-5.72,1.38c-1.93,0.05-4.2-0.59-5.82-1.7C181.16,426.55,181.8,423.83,182.83,422.36z"/>
		<path class="st14" d="M180.67,417.13c0.13,0.13,0.05,0.08-0.04,0C180.65,417.13,180.66,417.13,180.67,417.13z"/>
	</g>
	<g>
		<path class="st1" d="M520.19,539.53c0,3.51-23.51,6.35-52.51,6.35c-29,0-52.51-2.84-52.51-6.35c0-3.51,23.51-6.35,52.51-6.35
			C496.68,533.18,520.19,536.02,520.19,539.53z"/>
		<path class="st15" d="M454.15,434.68c0.54,0.25,1.2,0.25,1.79,0.25c1.19-0.01,2.38-0.08,3.54-0.38c1.94-0.49,3.47-1.65,5.17-2.64
			c0.51-0.3,0.99-0.66,1.5-0.95c0.27-0.15,0.62-0.22,0.84-0.45c-0.43-0.21-0.97-0.06-1.44-0.28c-1.31-0.61-2.15-2.03-2.56-3.35
			c-0.16-0.52-0.32-1.06-0.46-1.61c-0.09-0.37-0.18-0.74-0.24-1.11c-0.03-0.18-0.06-0.39-0.07-0.61c-0.05-0.64-0.03-1.41,0.16-1.96
			c0.06-0.08,0.12-0.17,0.18-0.25c-0.25,0-0.5-0.31-0.75-0.32c-0.36-0.01-0.78,0.48-1.04,0.69c-0.69,0.58-1.37,1.21-2.27,1.43
			c-1.19,0.29-2.56,0.71-3.77,0.47c0.43,0.61,0.64,1.5,0.78,2.26c0.02,0.09,0.03,0.17,0.05,0.26c0.13,0.77,0.32,1.49,0.29,2.28
			c0,0.02,0,0.04,0,0.07c-0.04,0.78-0.15,1.55-0.35,2.31C455.12,432.15,454.8,433.46,454.15,434.68z"/>
		<path class="st2" d="M451.76,414.17c-0.15,0.91-0.65,1.66-0.7,2.59c-0.08,1.34-0.06,2.76,0.33,4.05c0.77,2.55,2.58,5.21,4.58,6.96
			c3.05,2.66,5.95-2.41,6.69-4.95c0.64-2.16,1.17-5.13-0.05-7.17c-0.98-1.63-2.42-3.34-4.33-3.8c-1.37-0.33-3.14-0.19-4.38,0.53
			C453.12,412.86,452.42,414.26,451.76,414.17z"/>
		<path class="st16" d="M461.58,417.82c-1.96-2.59-4.9-1.66-6.06-1.82c-2.22-0.31-3.68-2.11-3.89-4.23
			c-0.11-1.12-0.27-2.58,0.08-3.62c0.94,0.23,1.62,0.73,2.69,0.52c1.12-0.22,2.01-0.69,3.19-0.74c2.18-0.08,4.7,0.41,6.17,2.12
			c1.97,2.28,2.88,5.28,2.8,8.27c-0.02,0.89-2.41,8.37-4,7.28c-0.58-0.39-0.28-3.59-0.35-4.33
			C462.12,420.35,461.89,418.24,461.58,417.82z"/>
		<path class="st16" d="M452.88,411.44c-1.96-0.14-3.19,2.52-3.37,4.33c-0.17,1.72,0.47,3.55,1.07,5.13
			c0.32,0.85,0.69,1.69,1.16,2.45c0.16,0.26,0.97,1.73,1.35,1.69c0.7-0.08-0.34-2.06-0.47-2.39c-0.43-1.12-0.76-2.2-0.88-3.38
			c-0.17-1.72-0.21-3.43,0.58-5.02C452.89,413.12,453.29,412.62,452.88,411.44z"/>
		<path class="st2" d="M461.61,419.05c0.23-0.61,0.23-1.13,0.72-1.56c0.35-0.31,0.79-0.45,1.15-0.03c0.73,0.86-0.24,2.05-0.65,2.8
			c-0.22,0.4-0.57,0.79-0.76,1.18c-0.14-0.47-0.13-0.98-0.22-1.45C461.81,419.75,461.75,419.01,461.61,419.05z"/>
		<path class="st17" d="M472.42,529.76c0.51,1-0.07,2.81,0.11,4c0.17,1.15,0.99,2.05,1.68,3c1.01,1.39,3.9,4,3.04,5.89
			c-1.11,2.43-4.11,1.41-5.67,0.24c-1.61-1.22-2.11-3.29-3.37-4.81c-1.02-1.23-1.08-2.26-0.76-3.79c0.3-1.47,0.27-2.95,0.36-4.51
			c0.98-0.12,2.05,0.15,3.03,0.2C471.3,529.99,472.63,530.07,472.42,529.76z"/>
		<path class="st17" d="M458.95,529.55c0.12,1.41-0.32,2.91-0.05,4.31c0.22,1.19,1.33,2.57,1,3.89c-0.33,1.31-2.02,1.36-3.13,1.71
			c-1.15,0.36-1.93,1.12-2.68,2.08c-1.51,1.94-5.12,2.49-7.02,0.53c-0.86-0.88-1.05-2.51-0.13-3.29c0.97-0.83,2.41-0.78,3.49-1.4
			c2.91-1.67,4.39-4.31,4.19-7.82c1.45,0.12,2.74,0.37,4.15,0.17C458.83,529.89,458.79,530.04,458.95,529.55z"/>
		<path class="st12" d="M469.71,462.58c1.23,0.54,1.89,3.7,2.39,4.94c0.78,1.93,1.31,4.04,1.59,6.1c0.81,5.78-0.01,11.52-0.62,17.25
			c-0.24,2.27-0.68,4.54-0.85,6.83c-0.18,2.38,0.47,5.39,1.35,7.55c0.97,2.39,1.51,6.67,1.15,9.25c-0.36,2.64-0.11,2.88-0.38,5.52
			c-0.25,2.45-0.51,4.92-0.63,7.36c-0.05,0.93-0.15,1.82-0.11,2.76c0.05,1-0.22,1.93-0.23,2.88c0,0.17-0.14,0.31-0.32,0.31
			c-2.07-0.06-4.68,0.04-6.57-0.57c-0.08-0.02-0.13-0.09-0.14-0.17c-0.5-4.33-1.33-8.65-2.21-12.94c-1.35-6.63-2.58-13.3-3.88-19.94
			c-1.21-6.2-2.44-12.54-3.24-18.83c-0.38-2.97-0.57-5.97-0.57-8.96c0-1.45,0.01-2.9,0.09-4.34c0.04-0.62-0.14-1.89,0.38-2.27
			c0.6-0.43,2.98-0.18,3.79-0.25c1.46-0.13,2.81-0.24,4.24-0.63c1.74-0.47,3.57-1.02,5.24-1.58
			C469.75,462.87,469.3,462.96,469.71,462.58z"/>
		<path class="st18" d="M461.31,465.31c0.07,0,0.13,0,0.19,0C461.43,465.19,461.36,465.21,461.31,465.31z"/>
		<path class="st12" d="M446.36,484.13c0,6.49,1.26,12.87,2.62,19.18c1.39,6.45,2.52,12.86,3.45,19.39c0.35,2.47,0.5,5.03,0.99,7.44
			c0.09,0.45,0.17,1.47,0.41,1.83c0.45,0.68,1.41,0.42,2.32,0.42c0.78,0,1.76,0.18,2.5,0.08c1.05-0.13,1.14-0.65,1.3-1.72
			c0.58-4.03,0.64-7.14,0.83-10.32c0.15-2.55,0.45-4.84,0.23-7.35c-0.01-0.16-0.03-0.33-0.05-0.49c-0.46-4.11-1.07-8.19-1.62-12.28
			c-0.23-1.68-0.2-3.35-0.08-5.02c0.14-2.05,0.43-4.09,0.58-6.14c0.57-7.67-0.27-15.36,1.23-22.92c0.06-0.29,0.14-0.76,0.25-0.94
			c-4.07-0.01-10.01,2.48-13.59-0.38c0.08,3.27-0.89,6.33-1.05,9.53C446.51,477.66,446.36,480.86,446.36,484.13z"/>
		<path class="st3" d="M446.99,465.2c0.11-3.27,0.42-6.52,0.42-9.8c0-3.14,0.05-6.26,0.23-9.39c0.08-1.37,0.25-2.77,0.06-4.13
			c-0.2-1.4-0.35-2.76-0.35-4.19c0-1.31-0.1-4.02,1.26-4.65c1.03-0.48,2.14-0.91,3.17-1.41c1.14-0.56,2.63-1.61,3.9-1.74
			c-0.01,0.21,0.01,0.53,0.06,0.66c-0.01,0.02-0.03,0.04-0.04,0.05c0.11,1.52,1.55,2.11,2.87,2.31c1.79,0.27,3.39-0.18,4.73-1.49
			c0.55-0.54,1.09-1.3,1.22-2.03c0.74,0.4,1.57,0.48,2.42,0.53c0.43,0.21,0.9,0.37,1.37,0.47c0.8,0.3,1.63,0.54,2.45,0.82
			c0.67,0.54,1.42,0.94,2.31,1.03c0.55,0.3,1.09,0.64,1.6,0.98c0.11,0.3,0.18,0.63,0.25,0.97c0.4,2.1,0.67,4.06-0.53,5.86
			c-0.52,0.79-3.24,5.2-3.34,5.58c-0.19,0.73,0,1.78,0,2.54v0.35c0,1.03-0.01,2.06,0,3.08c0.03,3.71,0.68,7.35,1.26,11
			c0.21,1.33,0.44,2.68,0.73,4c0.05,0.23,0.1,0.46,0.16,0.68c0.2,0.84,0.59,2.03,0.44,2.89c-0.41-0.03-0.98,0.18-1.39,0.27
			c-1.79,0.4-3.49,1.24-5.33,1.49c-2.97,0.41-6.05,0.54-9.06,0.56c-3.32,0.01-7.36,0.86-10.27-1.21c-0.65-0.46-0.44-1.15-0.44-1.96
			C447.14,467.95,446.95,466.58,446.99,465.2z"/>
		<path class="st2" d="M468.28,438.14c1.06,0.94,3.28,0.14,4.35-0.4c1.34-0.67,2.37-1.97,3.24-3.13c2.79-3.68,5.58-7.32,7.99-11.31
			c1.2-1.98,2.87-3.77,3.69-5.9c0.18-0.47-0.26-1.97-0.37-2.46c-0.18-0.78-1.04-0.46-1.67-0.24c-3.52,1.24-6.18,4.24-8.64,6.98
			c-0.94,1.05-1.68,2.25-2.62,3.32c-1.44,1.63-2.89,3.28-4.08,5.1c-0.92,1.41-1.71,3.18-2.16,4.8c-0.22,0.81-0.53,1.93-0.18,2.74
			C468.06,438.18,468.47,438.42,468.28,438.14z"/>
		<path class="st2" d="M486.69,418.2c0.86-0.62,1.06-1.74,1.3-2.7c0.79-3.16,1.04-6.47,1.41-9.74c0.3-2.67-0.01-5.42,0.54-8.12
			c0.52-2.52,1.74-4.94,2.03-7.53c0.16-1.42,0.2-3.68-0.55-5.21c-0.3-0.62-1.13-0.74-1.6-0.24c-0.23,0.24-0.44,0.5-0.56,0.73
			c-0.32,0.57-0.34,1.58-0.55,2.25c-0.41,1.29-1.05,2.63-1.34,3.93c-0.2-0.57-0.11-1.64-0.04-2.57c0.02-0.29-0.38-0.37-0.48-0.1
			c-0.43,1.24-0.81,2.77-0.95,3.76c-0.18,1.28,0.48,2.98,0.34,4.27c-0.25,2.28-1.21,3.93-1.82,6.15c-1.01,3.66-2.8,7.59-2.47,11.47
			c0.08,0.97-0.19,2.61,0.62,3.35C483.15,418.41,485.81,418.82,486.69,418.2z"/>
		<path class="st18" d="M445.99,447.8c-0.03-0.04-0.07-0.07-0.1-0.11C445.86,447.79,445.89,447.83,445.99,447.8z"/>
		<path class="st13" d="M455.41,485.19c0.31,3.33,0.76,6.67,1.9,9.83c0.86,2.39,1.29,5.06,1.41,7.57c0.05,1.11-0.14,2.18-0.14,3.29
			c-0.01,1.29,0.19,2.55,0.41,3.82c0.21,1.18,0.6,2.29,1.02,3.4c0.29,0.75,0.5,1.57,0.95,2.24c-0.01-0.74,0.01-1.49,0.04-2.24
			c-0.01-0.16-0.03-0.33-0.05-0.49c-0.46-4.11-1.07-8.19-1.62-12.28c-0.23-1.68-0.2-3.35-0.08-5.02c-0.32-1.37-0.54-2.83-0.68-4.22
			c-0.14-1.42-0.44-2.83-0.49-4.26c-0.05-1.35-0.01-3.36-0.54-4.59c-0.44-1.01-1.72-1.47-2.53-2.1
			C454.91,481.8,455.25,483.53,455.41,485.19z"/>
		<path class="st3" d="M481.27,427.05c-0.44-0.56-1.02-1.1-1.55-1.59c-0.59-0.55-1.17-1.1-1.75-1.65c-0.34-0.32-0.68-0.57-1.08-0.79
			c-0.44-0.25-1.21-0.4-1.48-0.79c-0.3,0.21-1.02,0.99-1.55,1.43c-0.82,0.67-1.63,1.23-2.36,2.01c-0.84,0.89-1.81,1.67-2.78,2.4
			c-1.2,0.91-2.58,1.74-4.05,1.97c-0.22,0.46-0.43,0.92-0.67,1.38c-0.24,0.45-0.53,0.85-0.86,1.2c0,0.04,0,0.07,0,0.11
			c-0.02,0.73-0.08,1.43-0.2,2.16c-0.13,0.76-0.42,1.44-0.13,2.19c0.63,1.65,1.86,2.83,3.09,4.05c1.42,1.41,2.52,3.02,3.65,4.66
			c0.16,0.23,0.31,0.49,0.45,0.75c0.08-0.63,0.23-1.24,0.49-1.81c0.74-1.62,2.1-3.3,3.47-4.42c0.13-0.11,0.27-0.16,0.41-0.22
			c0.53-0.84,1.07-1.67,1.6-2.51c0.93-1.47,1.47-3.02,2.25-4.53c0.5-0.98,1.19-1.79,1.74-2.74c0.39-0.69,0.73-1.45,1.19-2.07
			C481.55,427.68,481.72,427.63,481.27,427.05z"/>
	</g>
</g>
</svg>
