<svg id="Group_504" data-name="Group 504" xmlns="http://www.w3.org/2000/svg" width="119.98" height="119.957" viewBox="0 0 119.98 119.957">
  <path id="blogger-brands" d="M119.773,136.107a17.87,17.87,0,0,1-13.686,15.4c-1.928.482-2.6.509-46.307.482-42.263,0-44.433-.027-46.066-.482a19.217,19.217,0,0,1-5.973-2.678,21.632,21.632,0,0,1-4.553-4.392,23.021,23.021,0,0,1-2.678-5.892C.027,136.75,0,136.027,0,92.1,0,48.42,0,47.483.482,45.581A18.063,18.063,0,0,1,14.195,32.4c1.955-.429,88.946-.509,91.062-.08a17.909,17.909,0,0,1,12.749,9.749c2.062,4.1,1.875-.4,1.955,48.37C120.014,121.457,119.96,134.5,119.773,136.107Z" transform="translate(0 -32.04)" fill="#b23121"/>
  <path id="at-solid" d="M48.095,8A40.095,40.095,0,1,0,69.986,81.686a3.886,3.886,0,0,0,.9-5.719l-1.645-2.01a3.869,3.869,0,0,0-5.072-.829A29.748,29.748,0,1,1,48.095,18.347c16.19,0,29.748,9.315,29.748,25.867,0,6.271-3.41,12.892-9.4,13.531-2.8-.073-2.734-2.079-2.179-4.854l3.788-19.58a3.88,3.88,0,0,0-3.809-4.617H58.966a2.185,2.185,0,0,0-2.172,1.939l0,.015c-2.376-2.894-6.539-3.52-9.7-3.52-12.057,0-22.283,10.061-22.283,24.487,0,10.558,5.947,17.116,15.52,17.116a16.358,16.358,0,0,0,12.124-6.2C54,68.047,59.024,68.047,63.89,68.047c17.607,0,24.3-11.578,24.3-23.832C88.189,22.171,70.409,8,48.095,8ZM44.59,57.218c-3.6,0-5.832-2.526-5.832-6.592,0-7.274,4.976-11.758,9.479-11.758,3.6,0,5.756,2.464,5.756,6.591,0,7.285-5.477,11.758-9.4,11.758Z" transform="translate(11.612 11.912)" fill="#fff"/>
</svg>
