<svg xmlns="http://www.w3.org/2000/svg" width="119.98" height="119.957" viewBox="0 0 119.98 119.957">
  <path id="blogger-brands" d="M43.5,75.953c1.286-1.312,1.661-1.366,9.749-1.366,7.285,0,7.526.027,8.6.562a3.64,3.64,0,0,1,2.223,3.642,3.968,3.968,0,0,1-2.036,3.589c-.75.482-1.205.509-8.329.562a73.525,73.525,0,0,1-8.437-.214A4.24,4.24,0,0,1,43.5,75.953Zm16.445,25.31c-14.436,0-14.945.054-16.123,1.1a4.736,4.736,0,0,0-1.366,3.723,4.632,4.632,0,0,0,2.464,3.214c.589.268,3.776.455,15.079.321l12.829-.161,2.464-.4a4.1,4.1,0,0,0,.83-6.535c-1.419-1.259-1.339-1.259-16.177-1.259Zm59.833,34.844a17.87,17.87,0,0,1-13.686,15.4c-1.928.482-2.6.509-46.307.482-42.263,0-44.433-.027-46.066-.482a19.217,19.217,0,0,1-5.973-2.678,21.632,21.632,0,0,1-4.553-4.392,23.021,23.021,0,0,1-2.678-5.892C.027,136.75,0,136.027,0,92.1,0,48.42,0,47.483.482,45.581A18.063,18.063,0,0,1,14.195,32.4c1.955-.429,88.946-.509,91.062-.08a17.909,17.909,0,0,1,12.749,9.749c2.062,4.1,1.875-.4,1.955,48.37C120.014,121.457,119.96,134.5,119.773,136.107ZM96.9,86.505a4.766,4.766,0,0,0-2.062-3.08,22.012,22.012,0,0,0-4.151-.455c-3.321-.161-3.7-.214-4.767-.83-1.661-.964-2.116-2.035-2.143-4.9,0-5.464-2.277-10.552-6.776-15.132a25.21,25.21,0,0,0-10.874-6.722c-.964-.295-3.16-.4-10.5-.482-11.49-.134-14.061.107-17.971,1.661a23.644,23.644,0,0,0-14.3,16.712c-.348,1.446-.429,3.8-.509,17.221-.107,16.82,0,19.31,1.071,22.631,2.6,8.222,9.936,14.3,17.3,15.641,2.464.455,32.729.562,35.809.134a22.181,22.181,0,0,0,13.579-6.937,22.657,22.657,0,0,0,5.839-10.311c.857-2.919.777-23.676.455-25.149Z" transform="translate(0 -32.04)" fill="#f06a35"/>
</svg>
