<svg xmlns="http://www.w3.org/2000/svg" width="119.987" height="119.987" viewBox="0 0 119.987 119.987">
  <path id="envelope-square-solid" d="M107.131,32H12.856A12.856,12.856,0,0,0,0,44.856v94.275a12.856,12.856,0,0,0,12.856,12.856h94.275a12.856,12.856,0,0,0,12.856-12.856V44.856A12.856,12.856,0,0,0,107.131,32ZM47.7,93.628C23.416,76,23.663,75.956,17.141,70.88v-6.74a6.428,6.428,0,0,1,6.428-6.428H96.418a6.428,6.428,0,0,1,6.428,6.428v6.74C96.319,75.96,96.57,76,72.282,93.629c-2.812,2.05-8.408,7-12.289,6.935C56.109,100.622,50.521,95.682,47.7,93.628Zm55.141-11.873v38.092a6.428,6.428,0,0,1-6.428,6.428H23.569a6.428,6.428,0,0,1-6.428-6.428V81.756c3.738,2.891,8.926,6.759,25.525,18.805,3.793,2.77,10.171,8.609,17.327,8.573,7.2.036,13.669-5.9,17.334-8.577C93.921,88.514,99.108,84.646,102.846,81.756Z" transform="translate(0 -32)" fill="#f30000"/>
</svg>
