<svg xmlns="http://www.w3.org/2000/svg" width="132.843" height="132.836" viewBox="0 0 132.843 132.836">
  <path id="facebook-messenger-brands" d="M74.569,8C37.065,8,8,35.41,8,72.431c0,19.364,7.957,36.1,20.909,47.657,2.236,2.011,1.776,3.176,2.156,15.6a5.335,5.335,0,0,0,7.467,4.706c14.171-6.24,14.353-6.733,16.755-6.08,41.055,11.3,85.555-14.974,85.555-61.879C140.843,35.41,112.075,8,74.569,8Zm39.971,49.583L94.988,88.536A10.009,10.009,0,0,1,80.549,91.2L64.994,79.553a4.017,4.017,0,0,0-4.821,0l-20.99,15.92a3.157,3.157,0,0,1-4.583-4.2L54.152,60.323a10.006,10.006,0,0,1,14.439-2.66L84.141,69.3a4.017,4.017,0,0,0,4.821,0l21-15.9a3.149,3.149,0,0,1,4.577,4.183Z" transform="translate(-8 -8)" fill="#0084ff"/>
</svg>
