<svg xmlns="http://www.w3.org/2000/svg" width="119.987" height="119.987" viewBox="0 0 119.987 119.987">
  <path id="facebook-square-brands" d="M107.131,32H12.856A12.856,12.856,0,0,0,0,44.856v94.275a12.856,12.856,0,0,0,12.856,12.856H49.615V111.194H32.742v-19.2H49.615V77.359c0-16.646,9.91-25.84,25.087-25.84a102.221,102.221,0,0,1,14.87,1.3V69.153H81.2c-8.252,0-10.826,5.121-10.826,10.373V91.993H88.793l-2.946,19.2H70.372v40.793h36.759a12.856,12.856,0,0,0,12.856-12.856V44.856A12.856,12.856,0,0,0,107.131,32Z" transform="translate(0 -32)" fill="#3b5998"/>
</svg>
