<svg xmlns="http://www.w3.org/2000/svg" width="119.987" height="119.987" viewBox="0 0 119.987 119.987">
  <path id="linkedin-brands" d="M111.416,32H8.544A8.608,8.608,0,0,0,0,40.651V143.336a8.607,8.607,0,0,0,8.544,8.651H111.416a8.63,8.63,0,0,0,8.571-8.651V40.651A8.63,8.63,0,0,0,111.416,32ZM36.264,134.846H18.48V77.584H36.291v57.262ZM27.372,69.764A10.311,10.311,0,1,1,37.683,59.452,10.316,10.316,0,0,1,27.372,69.764Zm75.554,65.082H85.143V106.992c0-6.642-.134-15.186-9.24-15.186-9.267,0-10.686,7.231-10.686,14.7v28.336H47.432V77.584H64.493V85.4h.241c2.384-4.5,8.2-9.24,16.846-9.24,18,0,21.346,11.865,21.346,27.292Z" transform="translate(0 -32)" fill="#0e76a8"/>
</svg>
