<svg id="Group_503" data-name="Group 503" xmlns="http://www.w3.org/2000/svg" width="119.98" height="119.957" viewBox="0 0 119.98 119.957">
  <path id="blogger-brands" d="M119.773,136.107a17.87,17.87,0,0,1-13.686,15.4c-1.928.482-2.6.509-46.307.482-42.263,0-44.433-.027-46.066-.482a19.217,19.217,0,0,1-5.973-2.678,21.632,21.632,0,0,1-4.553-4.392,23.021,23.021,0,0,1-2.678-5.892C.027,136.75,0,136.027,0,92.1,0,48.42,0,47.483.482,45.581A18.063,18.063,0,0,1,14.195,32.4c1.955-.429,88.946-.509,91.062-.08a17.909,17.909,0,0,1,12.749,9.749c2.062,4.1,1.875-.4,1.955,48.37C120.014,121.457,119.96,134.5,119.773,136.107Z" transform="translate(0 -32.04)" fill="#08c"/>
  <path id="telegram-plane-brands" d="M82.088,70.683l-12.42,58.575c-.937,4.134-3.381,5.163-6.853,3.215L43.889,118.528l-9.132,8.783a4.753,4.753,0,0,1-3.8,1.856l1.36-19.274L67.389,78.2c1.525-1.36-.331-2.113-2.37-.753l-43.361,27.3L2.99,98.9c-4.061-1.268-4.134-4.061.845-6.008l73.016-28.13C80.232,63.5,83.19,65.52,82.088,70.683Z" transform="translate(16.071 -36.869)" fill="#fff"/>
</svg>
