<svg xmlns="http://www.w3.org/2000/svg" width="119.987" height="119.987" viewBox="0 0 119.987 119.987">
  <path id="whatsapp-square-brands" d="M59.993,56.319a35.3,35.3,0,0,0-29.916,54.074l.83,1.339-3.562,13.016L40.71,121.24l1.286.777a35.207,35.207,0,0,0,17.971,4.928h.027c19.444,0,35.7-15.829,35.7-35.3a35.462,35.462,0,0,0-10.74-24.962A35.029,35.029,0,0,0,59.993,56.319ZM80.75,106.778c-.884,2.491-5.116,4.741-7.151,5.035-3.375.509-6,.241-12.722-2.651-10.633-4.607-17.6-15.32-18.132-16.016s-4.339-5.758-4.339-10.981A11.885,11.885,0,0,1,42.129,73.3a3.864,3.864,0,0,1,2.839-1.339c.7,0,1.419,0,2.035.027.643.027,1.527-.241,2.384,1.821.884,2.116,3,7.338,3.268,7.874a1.874,1.874,0,0,1,.08,1.848c-2.035,4.071-4.2,3.91-3.107,5.785,4.1,7.044,8.2,9.481,14.436,12.615,1.071.536,1.687.455,2.3-.268.616-.7,2.651-3.107,3.348-4.151.7-1.071,1.419-.884,2.384-.536s6.187,2.919,7.258,3.455,1.768.8,2.035,1.232A9.423,9.423,0,0,1,80.75,106.778ZM107.131,32H12.856A12.859,12.859,0,0,0,0,44.856v94.275a12.859,12.859,0,0,0,12.856,12.856h94.275a12.859,12.859,0,0,0,12.856-12.856V44.856A12.859,12.859,0,0,0,107.131,32ZM59.967,134.1a42.434,42.434,0,0,1-20.3-5.169l-22.524,5.919,6.026-22.015a42.551,42.551,0,1,1,79.679-21.185c0,23.408-19.471,42.451-42.879,42.451Z" transform="translate(0 -32)" fill="#25d366"/>
</svg>
